<?xml version="1.0" encoding="UTF-8" standalone="no"?>
<svg
   xmlns:dc="http://purl.org/dc/elements/1.1/"
   xmlns:cc="http://creativecommons.org/ns#"
   xmlns:rdf="http://www.w3.org/1999/02/22-rdf-syntax-ns#"
   xmlns:svg="http://www.w3.org/2000/svg"
   xmlns="http://www.w3.org/2000/svg"
   xmlns:sodipodi="http://sodipodi.sourceforge.net/DTD/sodipodi-0.dtd"
   xmlns:inkscape="http://www.inkscape.org/namespaces/inkscape"
   sodipodi:docname="Símbolos.svg"
   inkscape:version="1.0 (4035a4fb49, 2020-05-01)"
   id="svg8"
   version="1.1"
   viewBox="0 0 210 297"
   height="297mm"
   width="210mm">
  <defs
     id="defs2">
    <rect
       id="rect53"
       height="40.5"
       width="45"
       y="192.375"
       x="39.9375" />
  </defs>
  <sodipodi:namedview
     inkscape:window-maximized="0"
     inkscape:window-y="0"
     inkscape:window-x="0"
     inkscape:window-height="760"
     inkscape:window-width="1264"
     showgrid="false"
     inkscape:document-rotation="0"
     inkscape:current-layer="layer1"
     inkscape:document-units="mm"
     inkscape:cy="561.25984"
     inkscape:cx="396.85039"
     inkscape:zoom="0.47037037"
     inkscape:pageshadow="2"
     inkscape:pageopacity="0.0"
     borderopacity="1.0"
     bordercolor="#666666"
     pagecolor="#ffffff"
     id="base" />
  <metadata
     id="metadata5">
    <rdf:RDF>
      <cc:Work
         rdf:about="">
        <dc:format>image/svg+xml</dc:format>
        <dc:type
           rdf:resource="http://purl.org/dc/dcmitype/StillImage" />
        <dc:title></dc:title>
      </cc:Work>
    </rdf:RDF>
  </metadata>
  <g
     id="layer1"
     inkscape:groupmode="layer"
     inkscape:label="Layer 1">
    <g
       id="g62">
      <text
         xml:space="preserve"
         id="text51"
         style="font-style:normal;font-weight:normal;font-size:9.87778px;line-height:1.25;font-family:sans-serif;white-space:pre;shape-inside:url(#rect53);fill:#000000;fill-opacity:1;stroke:none;"
         transform="matrix(7.6087724,0,0,9.8745251,-263.39966,-1724.0721)"><tspan
           x="39.9375"
           y="201.33793"><tspan
             style="font-style:normal;font-variant:normal;font-weight:bold;font-stretch:normal;font-size:9.87778px;font-family:'Trebuchet MS';-inkscape-font-specification:'Trebuchet MS Bold'">W</tspan></tspan></text>
      <rect
         id="rect57"
         width="78.75"
         height="13.499999"
         x="34.3125"
         y="214.31248"
         style="stroke-width:0.264583" />
    </g>
    <path
       id="path49"
       d="m 91.23583,156.23279 c -0.58208,-0.0794 -2.48708,-0.31754 -4.23333,-0.5293 -4.5084,-0.54668 -10.17691,-1.86331 -15.13378,-3.51512 -4.27838,-1.42572 -13.97039,-5.85608 -13.97039,-6.38608 0,-0.15524 4.94045,-8.81971 10.97878,-19.25438 6.03832,-10.43468 12.24152,-21.15495 13.78488,-23.82283 1.54336,-2.66788 2.85158,-4.850705 2.90715,-4.850705 0.0556,0 1.11519,0.45508 2.3547,1.01128 3.25242,1.459445 5.68493,1.956445 9.48561,1.938065 3.66599,-0.0177 6.68715,-0.66392 9.94992,-2.128175 1.13256,-0.50825 2.11424,-0.86125 2.18154,-0.78444 0.0673,0.0768 3.42139,5.854665 7.45355,12.839665 4.03216,6.985 10.1857,17.62125 13.67452,23.63611 3.48882,6.01486 6.39698,11.03181 6.46257,11.14877 0.1956,0.34883 -6.43349,3.65007 -10.85328,5.40487 -4.73139,1.87851 -11.86625,3.7912 -17.22715,4.61818 -3.48028,0.53689 -15.48898,0.99126 -17.81529,0.67409 z m 1.40651,-63.931865 c -4.22572,-1.46122 -7.54801,-4.30683 -9.38514,-8.03857 -3.02265,-6.13988 -1.85293,-13.11958 3.01441,-17.98692 5.60515,-5.60515 13.87405,-6.23666 20.40702,-1.55851 4.77186,3.41705 7.19841,9.53711 6.08619,15.35013 -1.47108,7.68866 -7.80581,12.89044 -15.65712,12.85692 -1.61443,-0.007 -3.40668,-0.25697 -4.46536,-0.62305 z m -56.581614,-14.80269 -18.133441,-0.0914 0.232692,-4.07417 c 0.636071,-11.13683 3.148207,-20.78904 7.981817,-30.66798 5.34838,-10.93102 13.09535,-20.44186 22.765706,-27.949108 3.42793,-2.66116 8.53468,-5.9752796 8.78368,-5.7003396 0.20282,0.22395 2.03616,3.3338196 5.59114,9.4841796 13.28168,22.978218 21.47292,37.173618 21.76013,37.710278 0.28029,0.52372 -0.0154,0.87721 -1.76751,2.11281 -5.29835,3.7365 -9.47768,11.40082 -9.49639,17.4151 l -0.005,1.67569 -4.67431,0.0409 c -2.57087,0.0225 -6.97618,0.0622 -9.78958,0.0882 -2.8134,0.026 -13.275327,0.006 -23.24872,-0.0441 z m 84.812394,-2.48021 c -0.31602,-2.97291 -1.61942,-7.1078 -2.98786,-9.47864 -1.32968,-2.30368 -4.47903,-5.71774 -6.83745,-7.41214 -1.00117,-0.71929 -1.87986,-1.35072 -1.95266,-1.40319 -0.0728,-0.0525 2.88407,-5.30105 6.5708,-11.66351 3.68673,-6.36246 9.91414,-17.12436 13.83868,-23.915328 3.92453,-6.79097 7.16866,-12.3834096 7.20915,-12.4276396 0.16405,-0.17916 5.52472,3.3265696 8.51847,5.5708396 9.69193,7.265588 17.7791,17.125878 23.27349,28.376238 4.95552,10.14696 7.32545,19.45819 8.05893,31.66274 l 0.18557,3.08774 -27.81274,-0.0149 -27.81274,-0.0149 -0.25164,-2.36726 z"
       style="fill:#000000;stroke-width:0.352778" />
  </g>
</svg>
