<?xml version="1.0" encoding="iso-8859-1"?>
<!-- Generator: Adobe Illustrator 16.0.0, SVG Export Plug-In . SVG Version: 6.00 Build 0)  -->
<!DOCTYPE svg PUBLIC "-//W3C//DTD SVG 1.1//EN" "http://www.w3.org/Graphics/SVG/1.1/DTD/svg11.dtd">
<svg version="1.1" id="Capa_1" xmlns="http://www.w3.org/2000/svg" xmlns:xlink="http://www.w3.org/1999/xlink" x="0px" y="0px"
	 width="92.439px" height="92.439px" viewBox="0 0 92.439 92.439" style="enable-background:new 0 0 92.439 92.439;"
	 xml:space="preserve">
<g>
	<g>
		<circle cx="45.787" cy="52.014" r="7.201"/>
		<path d="M92.262,48.381h-32.24c0.331,1.19,0.544,2.423,0.544,3.723c0,4.977-2.602,9.305-6.503,11.807l22.703,22.692
			c9.596-8.405,15.674-20.728,15.674-34.499C92.436,50.848,92.364,49.61,92.262,48.381z"/>
		<path d="M31.872,52.101c0-1.297,0.217-2.532,0.542-3.724H0.176C0.077,49.61,0,50.845,0,52.101C0,65.872,6.078,78.192,15.675,86.6
			l22.701-22.692C34.471,61.406,31.872,57.077,31.872,52.101z"/>
		<path d="M52.066,39.006c1.176,0.544,2.209,1.259,3.146,2.062L68.762,11.81c-1.078-0.609-2.167-1.201-3.303-1.728
			c-12.491-5.785-26.228-5.448-37.89-0.265l11.052,30.134C42.525,37.454,47.554,36.918,52.066,39.006z"/>
	</g>
</g>
<g>
</g>
<g>
</g>
<g>
</g>
<g>
</g>
<g>
</g>
<g>
</g>
<g>
</g>
<g>
</g>
<g>
</g>
<g>
</g>
<g>
</g>
<g>
</g>
<g>
</g>
<g>
</g>
<g>
</g>
</svg>
